<svg width="34" height="34" viewBox="0 0 34 34" fill="none" xmlns="http://www.w3.org/2000/svg">
<path d="M27.7464 21.3567C27.5531 21.7947 27.4954 22.2805 27.5808 22.7516C27.6662 23.2227 27.8908 23.6574 28.2256 23.9997L28.3127 24.0868C28.5828 24.3565 28.797 24.6769 28.9432 25.0295C29.0893 25.3821 29.1646 25.76 29.1646 26.1417C29.1646 26.5234 29.0893 26.9013 28.9432 27.2539C28.797 27.6065 28.5828 27.9268 28.3127 28.1965C28.043 28.4666 27.7227 28.6808 27.3701 28.827C27.0175 28.9731 26.6395 29.0484 26.2579 29.0484C25.8762 29.0484 25.4982 28.9731 25.1456 28.827C24.793 28.6808 24.4727 28.4666 24.203 28.1965L24.1158 28.1094C23.7736 27.7746 23.3389 27.55 22.8678 27.4646C22.3967 27.3792 21.9108 27.4369 21.4728 27.6302C21.0433 27.8143 20.677 28.1199 20.419 28.5096C20.161 28.8992 20.0225 29.3557 20.0206 29.823V30.0699C20.0206 30.8402 19.7146 31.5789 19.1699 32.1236C18.6253 32.6683 17.8865 32.9743 17.1162 32.9743C16.3459 32.9743 15.6072 32.6683 15.0625 32.1236C14.5178 31.5789 14.2118 30.8402 14.2118 30.0699V29.9392C14.2006 29.4585 14.045 28.9924 13.7653 28.6013C13.4856 28.2102 13.0947 27.9123 12.6434 27.7464C12.2054 27.5531 11.7195 27.4954 11.2484 27.5808C10.7774 27.6662 10.3427 27.8908 10.0004 28.2256L9.91327 28.3127C9.64353 28.5828 9.3232 28.797 8.97061 28.9432C8.61802 29.0893 8.24008 29.1646 7.8584 29.1646C7.47671 29.1646 7.09877 29.0893 6.74618 28.9432C6.39359 28.797 6.07327 28.5828 5.80352 28.3127C5.53348 28.043 5.31926 27.7227 5.17309 27.3701C5.02693 27.0175 4.9517 26.6395 4.9517 26.2579C4.9517 25.8762 5.02693 25.4982 5.17309 25.1456C5.31926 24.793 5.53348 24.4727 5.80352 24.203L5.89066 24.1158C6.22544 23.7736 6.45003 23.3389 6.53544 22.8678C6.62086 22.3967 6.5632 21.9108 6.36988 21.4728C6.1858 21.0433 5.88014 20.677 5.49052 20.419C5.10091 20.161 4.64435 20.0225 4.17705 20.0206H3.93018C3.15988 20.0206 2.42113 19.7146 1.87645 19.1699C1.33176 18.6253 1.02576 17.8865 1.02576 17.1162C1.02576 16.3459 1.33176 15.6072 1.87645 15.0625C2.42113 14.5178 3.15988 14.2118 3.93018 14.2118H4.06088C4.54155 14.2006 5.00772 14.045 5.39879 13.7653C5.78986 13.4856 6.08774 13.0947 6.25371 12.6434C6.44702 12.2054 6.50468 11.7195 6.41927 11.2484C6.33385 10.7774 6.10927 10.3427 5.77448 10.0004L5.68735 9.91327C5.41731 9.64353 5.20308 9.3232 5.05692 8.97061C4.91075 8.61802 4.83552 8.24008 4.83552 7.8584C4.83552 7.47671 4.91075 7.09877 5.05692 6.74618C5.20308 6.39359 5.41731 6.07327 5.68735 5.80352C5.95709 5.53348 6.27741 5.31926 6.63 5.17309C6.98259 5.02693 7.36054 4.9517 7.74222 4.9517C8.12391 4.9517 8.50185 5.02693 8.85444 5.17309C9.20703 5.31926 9.52735 5.53348 9.79709 5.80352L9.88422 5.89066C10.2265 6.22544 10.6612 6.45003 11.1323 6.53544C11.6034 6.62086 12.0892 6.5632 12.5272 6.36988H12.6434C13.0729 6.1858 13.4393 5.88014 13.6973 5.49052C13.9553 5.10091 14.0938 4.64435 14.0956 4.17705V3.93018C14.0956 3.15988 14.4016 2.42113 14.9463 1.87645C15.491 1.33176 16.2297 1.02576 17 1.02576C17.7703 1.02576 18.5091 1.33176 19.0538 1.87645C19.5984 2.42113 19.9044 3.15988 19.9044 3.93018V4.06088C19.9063 4.52818 20.0448 4.98473 20.3028 5.37435C20.5608 5.76396 20.9271 6.06962 21.3567 6.25371C21.7947 6.44702 22.2805 6.50468 22.7516 6.41927C23.2227 6.33385 23.6574 6.10927 23.9997 5.77448L24.0868 5.68735C24.3565 5.41731 24.6769 5.20308 25.0295 5.05692C25.3821 4.91075 25.76 4.83552 26.1417 4.83552C26.5234 4.83552 26.9013 4.91075 27.2539 5.05692C27.6065 5.20308 27.9268 5.41731 28.1965 5.68735C28.4666 5.95709 28.6808 6.27741 28.827 6.63C28.9731 6.98259 29.0484 7.36054 29.0484 7.74222C29.0484 8.12391 28.9731 8.50185 28.827 8.85444C28.6808 9.20703 28.4666 9.52735 28.1965 9.79709L28.1094 9.88422C27.7746 10.2265 27.55 10.6612 27.4646 11.1323C27.3792 11.6034 27.4369 12.0892 27.6302 12.5272V12.6434C27.8143 13.0729 28.1199 13.4393 28.5096 13.6973C28.8992 13.9553 29.3557 14.0938 29.823 14.0956H30.0699C30.8402 14.0956 31.5789 14.4016 32.1236 14.9463C32.6683 15.491 32.9743 16.2297 32.9743 17C32.9743 17.7703 32.6683 18.5091 32.1236 19.0538C31.5789 19.5984 30.8402 19.9044 30.0699 19.9044H29.9392C29.4719 19.9063 29.0153 20.0448 28.6257 20.3028C28.2361 20.5608 27.9305 20.9271 27.7464 21.3567Z" stroke="black" stroke-width="2" stroke-linecap="round" stroke-linejoin="round"/>
</svg>
